<svg aria-hidden="true" style="position: absolute; width: 0; height: 0; overflow: hidden;" version="1.1" xmlns="http://www.w3.org/2000/svg" xmlns:xlink="http://www.w3.org/1999/xlink">
<defs>
<symbol id="icon-search" viewBox="0 0 32 32">
<path d="M19.427 20.427c-1.39 0.99-3.090 1.573-4.927 1.573-4.694 0-8.5-3.806-8.5-8.5s3.806-8.5 8.5-8.5c4.694 0 8.5 3.806 8.5 8.5 0 2.347-0.951 4.472-2.49 6.010l5.997 5.997c0.275 0.275 0.268 0.716-0.008 0.992-0.278 0.278-0.72 0.28-0.992 0.008l-6.081-6.081zM14.5 21c4.142 0 7.5-3.358 7.5-7.5s-3.358-7.5-7.5-7.5c-4.142 0-7.5 3.358-7.5 7.5s3.358 7.5 7.5 7.5v0z"></path>
</symbol>
<symbol id="icon-menu" viewBox="0 0 32 32">
<path d="M1.531 4.056c-0.563 0.138-1.081 0.563-1.344 1.1-0.212 0.431-0.219 1.237-0.013 1.656 0.212 0.444 0.469 0.706 0.9 0.944l0.394 0.213h29.063l0.319-0.169c0.475-0.25 0.669-0.438 0.906-0.875 0.194-0.362 0.212-0.438 0.212-0.925s-0.019-0.563-0.212-0.925c-0.231-0.431-0.494-0.681-0.944-0.9l-0.281-0.144-14.406-0.013c-7.925 0-14.488 0.013-14.594 0.037z"></path>
<path d="M1.531 14.056c-0.563 0.137-1.081 0.563-1.344 1.1-0.212 0.431-0.219 1.238-0.013 1.656 0.212 0.444 0.469 0.706 0.9 0.944l0.394 0.212h29.063l0.319-0.169c0.475-0.25 0.669-0.438 0.906-0.875 0.194-0.363 0.212-0.438 0.212-0.925s-0.019-0.563-0.212-0.925c-0.231-0.431-0.494-0.681-0.944-0.9l-0.281-0.144-14.406-0.012c-7.925 0-14.488 0.012-14.594 0.037z"></path>
<path d="M1.531 24.056c-0.563 0.137-1.081 0.563-1.344 1.1-0.212 0.431-0.219 1.238-0.013 1.656 0.212 0.444 0.469 0.706 0.9 0.944l0.394 0.212h29.063l0.319-0.169c0.475-0.25 0.669-0.438 0.906-0.875 0.194-0.363 0.212-0.438 0.212-0.925s-0.019-0.563-0.212-0.925c-0.231-0.431-0.494-0.681-0.944-0.9l-0.281-0.144-14.406-0.012c-7.925 0-14.488 0.012-14.594 0.038z"></path>
</symbol>
<symbol id="icon-close" viewBox="0 0 32 32">
<path d="M1.694 0.069c-0.65 0.125-1.212 0.569-1.494 1.169-0.138 0.294-0.169 0.444-0.169 0.856 0 0.969-0.425 0.487 6.719 7.625l6.313 6.313-6.369 6.375c-5.169 5.181-6.388 6.431-6.506 6.688-0.212 0.444-0.219 1.244-0.013 1.688 0.181 0.394 0.581 0.806 0.981 1.019 0.45 0.231 1.169 0.262 1.688 0.075 0.362-0.137 0.587-0.35 6.769-6.525l6.387-6.381 6.363 6.35c5.106 5.1 6.419 6.381 6.669 6.5 0.262 0.125 0.406 0.15 0.906 0.15 0.519 0 0.631-0.025 0.906-0.169 0.387-0.2 0.806-0.644 0.988-1.038 0.2-0.425 0.187-1.231-0.019-1.669-0.119-0.256-1.337-1.506-6.506-6.688l-6.369-6.375 6.313-6.313c7.144-7.138 6.719-6.656 6.719-7.625 0-0.406-0.031-0.563-0.163-0.844-0.506-1.075-1.775-1.512-2.837-0.988-0.163 0.081-2.444 2.313-6.606 6.475l-6.363 6.356-6.356-6.356c-4.169-4.162-6.45-6.394-6.612-6.475-0.212-0.106-0.906-0.281-1.025-0.256-0.019 0.006-0.163 0.031-0.313 0.063z"></path>
</symbol>
<symbol id="icon-arrow-right" viewBox="0 0 32 32">
<path d="M19.414 27.414l10-10c0.781-0.781 0.781-2.047 0-2.828l-10-10c-0.781-0.781-2.047-0.781-2.828 0s-0.781 2.047 0 2.828l6.586 6.586h-19.172c-1.105 0-2 0.895-2 2s0.895 2 2 2h19.172l-6.586 6.586c-0.39 0.39-0.586 0.902-0.586 1.414s0.195 1.024 0.586 1.414c0.781 0.781 2.047 0.781 2.828 0z"></path>
</symbol>
<symbol id="icon-facebook" viewBox="0 0 24 28">
<path d="M19.5 2c2.484 0 4.5 2.016 4.5 4.5v15c0 2.484-2.016 4.5-4.5 4.5h-2.938v-9.297h3.109l0.469-3.625h-3.578v-2.312c0-1.047 0.281-1.75 1.797-1.75l1.906-0.016v-3.234c-0.328-0.047-1.469-0.141-2.781-0.141-2.766 0-4.672 1.687-4.672 4.781v2.672h-3.125v3.625h3.125v9.297h-8.313c-2.484 0-4.5-2.016-4.5-4.5v-15c0-2.484 2.016-4.5 4.5-4.5h15z"></path>
</symbol>
<symbol id="icon-twitter" viewBox="0 0 24 28">
<path d="M20 9.531c-0.594 0.266-1.219 0.438-1.891 0.531 0.688-0.406 1.203-1.062 1.453-1.828-0.641 0.375-1.344 0.656-2.094 0.797-0.594-0.641-1.453-1.031-2.391-1.031-1.813 0-3.281 1.469-3.281 3.281 0 0.25 0.016 0.516 0.078 0.75-2.734-0.141-5.156-1.437-6.781-3.437-0.281 0.484-0.453 1.062-0.453 1.656 0 1.141 0.531 2.141 1.422 2.734-0.547-0.016-1.062-0.172-1.563-0.406v0.031c0 1.594 1.203 2.922 2.703 3.219-0.281 0.078-0.5 0.125-0.797 0.125-0.203 0-0.406-0.031-0.609-0.063 0.422 1.297 1.625 2.25 3.063 2.281-1.125 0.875-2.531 1.406-4.078 1.406-0.266 0-0.531-0.016-0.781-0.047 1.453 0.922 3.172 1.469 5.031 1.469 6.031 0 9.344-5 9.344-9.344 0-0.141 0-0.281-0.016-0.422 0.641-0.453 1.203-1.031 1.641-1.703zM24 6.5v15c0 2.484-2.016 4.5-4.5 4.5h-15c-2.484 0-4.5-2.016-4.5-4.5v-15c0-2.484 2.016-4.5 4.5-4.5h15c2.484 0 4.5 2.016 4.5 4.5z"></path>
</symbol>
<symbol id="icon-linkedin" viewBox="0 0 24 28">
<path d="M3.703 22.094h3.609v-10.844h-3.609v10.844zM7.547 7.906c-0.016-1.062-0.781-1.875-2.016-1.875s-2.047 0.812-2.047 1.875c0 1.031 0.781 1.875 2 1.875h0.016c1.266 0 2.047-0.844 2.047-1.875zM16.688 22.094h3.609v-6.219c0-3.328-1.781-4.875-4.156-4.875-1.937 0-2.797 1.078-3.266 1.828h0.031v-1.578h-3.609s0.047 1.016 0 10.844v0h3.609v-6.062c0-0.313 0.016-0.641 0.109-0.875 0.266-0.641 0.859-1.313 1.859-1.313 1.297 0 1.813 0.984 1.813 2.453v5.797zM24 6.5v15c0 2.484-2.016 4.5-4.5 4.5h-15c-2.484 0-4.5-2.016-4.5-4.5v-15c0-2.484 2.016-4.5 4.5-4.5h15c2.484 0 4.5 2.016 4.5 4.5z"></path>
</symbol>
</defs>
</svg>
